solid OpenSCAD_Model
  facet normal -1 0 0
    outer loop
      vertex -1 -1.44 -1.3
      vertex -1 -0.140001 -1.11429
      vertex -1 -0.140001 -1.3
    endloop
  endfacet
  facet normal -1 -0 0
    outer loop
      vertex -1 -0.140001 -1.11429
      vertex -1 -1.44 -1.3
      vertex -1 -1.44 -1.11429
    endloop
  endfacet
  facet normal -0 0 1
    outer loop
      vertex -1 -0.140001 -1.11429
      vertex -0.650001 -1.44 -1.11429
      vertex -0.650001 -0.140001 -1.11429
    endloop
  endfacet
  facet normal 0 0 1
    outer loop
      vertex -0.650001 -1.44 -1.11429
      vertex -1 -0.140001 -1.11429
      vertex -1 -1.44 -1.11429
    endloop
  endfacet
  facet normal 1 -0 0
    outer loop
      vertex -0.650001 -1.44 -1.11429
      vertex -0.650001 -0.140001 -1.3
      vertex -0.650001 -0.140001 -1.11429
    endloop
  endfacet
  facet normal 1 0 0
    outer loop
      vertex -0.650001 -0.140001 -1.3
      vertex -0.650001 -1.44 -1.11429
      vertex -0.650001 -1.44 -1.3
    endloop
  endfacet
  facet normal 0 1 -0
    outer loop
      vertex -0.650001 -0.140001 -1.3
      vertex -1 -0.140001 -1.11429
      vertex -0.650001 -0.140001 -1.11429
    endloop
  endfacet
  facet normal 0 1 0
    outer loop
      vertex -1 -0.140001 -1.11429
      vertex -0.650001 -0.140001 -1.3
      vertex -1 -0.140001 -1.3
    endloop
  endfacet
  facet normal 0 0 -1
    outer loop
      vertex -1 -1.44 -1.3
      vertex -0.650001 -0.140001 -1.3
      vertex -0.650001 -1.44 -1.3
    endloop
  endfacet
  facet normal -0 0 -1
    outer loop
      vertex -0.650001 -0.140001 -1.3
      vertex -1 -1.44 -1.3
      vertex -1 -0.140001 -1.3
    endloop
  endfacet
  facet normal 0 -1 0
    outer loop
      vertex -1 -1.44 -1.3
      vertex -0.650001 -1.44 -1.11429
      vertex -1 -1.44 -1.11429
    endloop
  endfacet
  facet normal 0 -1 -0
    outer loop
      vertex -0.650001 -1.44 -1.11429
      vertex -1 -1.44 -1.3
      vertex -0.650001 -1.44 -1.3
    endloop
  endfacet
  facet normal -1 0 0
    outer loop
      vertex -0.650001 -1.44 -1.11429
      vertex -0.650001 -0.140001 -0.928572
      vertex -0.650001 -0.140001 -1.11429
    endloop
  endfacet
  facet normal -1 -0 0
    outer loop
      vertex -0.650001 -0.140001 -0.928572
      vertex -0.650001 -1.44 -1.11429
      vertex -0.650001 -1.44 -0.928572
    endloop
  endfacet
  facet normal 0 0 -1
    outer loop
      vertex -0.3 -0.140018 -0.928572
      vertex 0.349991 -1.44 -0.928572
      vertex -0.3 -1.44 -0.928572
    endloop
  endfacet
  facet normal 0 0 1
    outer loop
      vertex -0.3 -0.140001 -0.928572
      vertex -0.300003 -0.140012 -0.928572
      vertex -0.3 -0.140018 -0.928572
    endloop
  endfacet
  facet normal -0 0 1
    outer loop
      vertex -0.650001 -0.140001 -0.928572
      vertex -0.300003 -0.140012 -0.928572
      vertex -0.3 -0.140001 -0.928572
    endloop
  endfacet
  facet normal 0 0 1
    outer loop
      vertex -0.650001 -0.140001 -0.928572
      vertex -0.300003 -1.44 -0.928572
      vertex -0.300003 -0.140012 -0.928572
    endloop
  endfacet
  facet normal 0 0 1
    outer loop
      vertex -0.300003 -1.44 -0.928572
      vertex -0.650001 -0.140001 -0.928572
      vertex -0.650001 -1.44 -0.928572
    endloop
  endfacet
  facet normal 1 -0 0
    outer loop
      vertex -0.3 -0.140018 -0.928572
      vertex -0.3 -0.140001 -1.11429
      vertex -0.3 -0.140001 -0.928572
    endloop
  endfacet
  facet normal 1 -0 0
    outer loop
      vertex -0.3 -1.44 -0.928572
      vertex -0.3 -0.140001 -1.11429
      vertex -0.3 -0.140018 -0.928572
    endloop
  endfacet
  facet normal 1 0 0
    outer loop
      vertex -0.3 -0.140001 -1.11429
      vertex -0.3 -1.44 -0.928572
      vertex -0.3 -1.44 -1.11429
    endloop
  endfacet
  facet normal 0 0 -1
    outer loop
      vertex -0.650001 -1.44 -1.11429
      vertex -0.3 -0.140001 -1.11429
      vertex -0.3 -1.44 -1.11429
    endloop
  endfacet
  facet normal -0 0 -1
    outer loop
      vertex -0.3 -0.140001 -1.11429
      vertex -0.650001 -1.44 -1.11429
      vertex -0.650001 -0.140001 -1.11429
    endloop
  endfacet
  facet normal 0 -1 0
    outer loop
      vertex -0.3 -1.44 -0.928572
      vertex -0.300003 -1.44 -0.742858
      vertex -0.300003 -1.44 -0.928572
    endloop
  endfacet
  facet normal 0 -1 0
    outer loop
      vertex -0.300003 -1.44 -0.742858
      vertex -0.3 -1.44 -0.928572
      vertex 0.349991 -1.44 -0.742858
    endloop
  endfacet
  facet normal 0 -1 -0
    outer loop
      vertex 0.349991 -1.44 -0.742858
      vertex -0.3 -1.44 -0.928572
      vertex 0.349991 -1.44 -0.928572
    endloop
  endfacet
  facet normal 0 -1 0
    outer loop
      vertex -0.650001 -1.44 -1.11429
      vertex -0.300003 -1.44 -0.928572
      vertex -0.650001 -1.44 -0.928572
    endloop
  endfacet
  facet normal 0 -1 0
    outer loop
      vertex -0.3 -1.44 -1.11429
      vertex -0.300003 -1.44 -0.928572
      vertex -0.650001 -1.44 -1.11429
    endloop
  endfacet
  facet normal 0 -1 0
    outer loop
      vertex -0.300003 -1.44 -0.928572
      vertex -0.3 -1.44 -1.11429
      vertex -0.3 -1.44 -0.928572
    endloop
  endfacet
  facet normal 0 1 -0
    outer loop
      vertex -0.3 -0.140001 -1.11429
      vertex -0.650001 -0.140001 -0.928572
      vertex -0.3 -0.140001 -0.928572
    endloop
  endfacet
  facet normal 0 1 0
    outer loop
      vertex -0.650001 -0.140001 -0.928572
      vertex -0.3 -0.140001 -1.11429
      vertex -0.650001 -0.140001 -1.11429
    endloop
  endfacet
  facet normal 0.894427 0.447214 0
    outer loop
      vertex -0.300003 -0.140012 -0.742858
      vertex -0.3 -0.140018 -0.928572
      vertex -0.300003 -0.140012 -0.928572
    endloop
  endfacet
  facet normal 0.894427 0.447214 6.31776e-13
    outer loop
      vertex 0.349991 -1.44 -0.742858
      vertex -0.3 -0.140018 -0.928572
      vertex -0.300003 -0.140012 -0.742858
    endloop
  endfacet
  facet normal 0.894427 0.447214 0
    outer loop
      vertex -0.3 -0.140018 -0.928572
      vertex 0.349991 -1.44 -0.742858
      vertex 0.349991 -1.44 -0.928572
    endloop
  endfacet
  facet normal 0 0 1
    outer loop
      vertex -0.300003 -0.140012 -0.742858
      vertex -0.300003 -1.44 -0.742858
      vertex 0.349991 -1.44 -0.742858
    endloop
  endfacet
  facet normal -1 0 0
    outer loop
      vertex -0.300003 -1.44 -0.928572
      vertex -0.300003 -0.140012 -0.742858
      vertex -0.300003 -0.140012 -0.928572
    endloop
  endfacet
  facet normal -1 -0 0
    outer loop
      vertex -0.300003 -0.140012 -0.742858
      vertex -0.300003 -1.44 -0.928572
      vertex -0.300003 -1.44 -0.742858
    endloop
  endfacet
  facet normal 0 0 -1
    outer loop
      vertex 0.349991 -1.44 -0.742858
      vertex -0.300003 -0.140012 -0.742858
      vertex 1 -1.44 -0.742858
    endloop
  endfacet
  facet normal 0 -1 0
    outer loop
      vertex 0.349991 -1.44 -0.742858
      vertex 1 -1.44 -0.557143
      vertex 0.349991 -1.44 -0.557143
    endloop
  endfacet
  facet normal 0 -1 -0
    outer loop
      vertex 1 -1.44 -0.557143
      vertex 0.349991 -1.44 -0.742858
      vertex 1 -1.44 -0.742858
    endloop
  endfacet
  facet normal 0.707103 0.707111 -0
    outer loop
      vertex 1 -1.44 -0.742858
      vertex -0.300003 -0.140012 -0.557143
      vertex 1 -1.44 -0.557143
    endloop
  endfacet
  facet normal 0.707103 0.707111 0
    outer loop
      vertex -0.300003 -0.140012 -0.557143
      vertex 1 -1.44 -0.742858
      vertex -0.300003 -0.140012 -0.742858
    endloop
  endfacet
  facet normal -0.894427 -0.447214 0
    outer loop
      vertex 0.349991 -1.44 -0.742858
      vertex -0.300003 -0.140012 -0.557143
      vertex -0.300003 -0.140012 -0.742858
    endloop
  endfacet
  facet normal -0.894427 -0.447214 0
    outer loop
      vertex -0.300003 -0.140012 -0.557143
      vertex 0.349991 -1.44 -0.742858
      vertex 0.349991 -1.44 -0.557143
    endloop
  endfacet
  facet normal 0 0 1
    outer loop
      vertex 1 -1.44 -0.557143
      vertex -0.300003 -0.140012 -0.557143
      vertex 0.349991 -1.44 -0.557143
    endloop
  endfacet
  facet normal 0 0 -1
    outer loop
      vertex 1 -1.44 -0.557143
      vertex -0.300003 -0.140012 -0.557143
      vertex 1 -0.790006 -0.557143
    endloop
  endfacet
  facet normal -0.707103 -0.707111 0
    outer loop
      vertex -0.300003 -0.140012 -0.557143
      vertex 1 -1.44 -0.371429
      vertex -0.300003 -0.140012 -0.371429
    endloop
  endfacet
  facet normal -0.707103 -0.707111 -0
    outer loop
      vertex 1 -1.44 -0.371429
      vertex -0.300003 -0.140012 -0.557143
      vertex 1 -1.44 -0.557143
    endloop
  endfacet
  facet normal 1 -0 0
    outer loop
      vertex 1 -1.44 -0.371429
      vertex 1 -0.790006 -0.557143
      vertex 1 -0.790006 -0.371429
    endloop
  endfacet
  facet normal 1 0 0
    outer loop
      vertex 1 -0.790006 -0.557143
      vertex 1 -1.44 -0.371429
      vertex 1 -1.44 -0.557143
    endloop
  endfacet
  facet normal 0.447209 0.894429 -0
    outer loop
      vertex 1 -0.790006 -0.557143
      vertex -0.300003 -0.140012 -0.371429
      vertex 1 -0.790006 -0.371429
    endloop
  endfacet
  facet normal 0.447209 0.894429 0
    outer loop
      vertex -0.300003 -0.140012 -0.371429
      vertex 1 -0.790006 -0.557143
      vertex -0.300003 -0.140012 -0.557143
    endloop
  endfacet
  facet normal 0 0 1
    outer loop
      vertex 1 -0.790006 -0.371429
      vertex -0.300003 -0.140012 -0.371429
      vertex 1 -1.44 -0.371429
    endloop
  endfacet
  facet normal 0 0 -1
    outer loop
      vertex 1 -0.790006 -0.371429
      vertex -0.300003 -0.140012 -0.371429
      vertex 1 -0.140012 -0.371429
    endloop
  endfacet
  facet normal -0.447209 -0.894429 0
    outer loop
      vertex -0.300003 -0.140012 -0.371429
      vertex 1 -0.790006 -0.185715
      vertex -0.300003 -0.140012 -0.185715
    endloop
  endfacet
  facet normal -0.447209 -0.894429 -0
    outer loop
      vertex 1 -0.790006 -0.185715
      vertex -0.300003 -0.140012 -0.371429
      vertex 1 -0.790006 -0.371429
    endloop
  endfacet
  facet normal 1 -0 0
    outer loop
      vertex 1 -0.790006 -0.185715
      vertex 1 -0.140012 -0.371429
      vertex 1 -0.140012 -0.185715
    endloop
  endfacet
  facet normal 1 0 0
    outer loop
      vertex 1 -0.140012 -0.371429
      vertex 1 -0.790006 -0.185715
      vertex 1 -0.790006 -0.371429
    endloop
  endfacet
  facet normal 0 1 -0
    outer loop
      vertex 1 -0.140012 -0.371429
      vertex -0.300003 -0.140012 -0.185715
      vertex 1 -0.140012 -0.185715
    endloop
  endfacet
  facet normal 0 1 0
    outer loop
      vertex -0.300003 -0.140012 -0.185715
      vertex 1 -0.140012 -0.371429
      vertex -0.300003 -0.140012 -0.371429
    endloop
  endfacet
  facet normal 0 0 1
    outer loop
      vertex 1 -0.140012 -0.185715
      vertex -0.300003 -0.140012 -0.185715
      vertex 1 -0.790006 -0.185715
    endloop
  endfacet
  facet normal -0 0 1
    outer loop
      vertex -0.3 0.139987 -7.62939e-07
      vertex 1 -0.140001 -7.62939e-07
      vertex 1 0.139987 -7.62939e-07
    endloop
  endfacet
  facet normal 0 0 1
    outer loop
      vertex 1 -0.140001 -7.62939e-07
      vertex -0.3 0.139987 -7.62939e-07
      vertex -0.3 -0.140001 -7.62939e-07
    endloop
  endfacet
  facet normal 0 0 -1
    outer loop
      vertex 1 0.14 -7.62939e-07
      vertex -0.299976 0.14 -7.62939e-07
      vertex 1 0.789996 -7.62939e-07
    endloop
  endfacet
  facet normal 0 0 -1
    outer loop
      vertex -0.3 0.139987 -7.62939e-07
      vertex -0.300003 0.139987 -7.62939e-07
      vertex -0.3 0.139988 -7.62939e-07
    endloop
  endfacet
  facet normal 0 0 1
    outer loop
      vertex -0.299976 0.14 -7.62939e-07
      vertex -0.3 0.14 -7.62939e-07
      vertex -0.3 0.139988 -7.62939e-07
    endloop
  endfacet
  facet normal 0 -1 0
    outer loop
      vertex -0.3 0.139987 -7.62939e-07
      vertex -0.300003 0.139987 0.185714
      vertex -0.300003 0.139987 -7.62939e-07
    endloop
  endfacet
  facet normal 0 -1 0
    outer loop
      vertex -0.300003 0.139987 0.185714
      vertex -0.3 0.139987 -7.62939e-07
      vertex 1 0.139987 0.185714
    endloop
  endfacet
  facet normal 0 -1 -0
    outer loop
      vertex 1 0.139987 0.185714
      vertex -0.3 0.139987 -7.62939e-07
      vertex 1 0.139987 -7.62939e-07
    endloop
  endfacet
  facet normal 1 0 0
    outer loop
      vertex 1 0.789996 0.185714
      vertex 1 0.14 -7.62939e-07
      vertex 1 0.789996 -7.62939e-07
    endloop
  endfacet
  facet normal 1 -0 0
    outer loop
      vertex 1 0.139987 0.185714
      vertex 1 0.14 -7.62939e-07
      vertex 1 0.789996 0.185714
    endloop
  endfacet
  facet normal 1 0 0
    outer loop
      vertex 1 0.139987 -7.62939e-07
      vertex 1 0.14 -7.62939e-07
      vertex 1 0.139987 0.185714
    endloop
  endfacet
  facet normal 1 0 0
    outer loop
      vertex 1 0.14 -7.62939e-07
      vertex 1 0.139987 -7.62939e-07
      vertex 1 0.14 -0.185715
    endloop
  endfacet
  facet normal 1 -0 0
    outer loop
      vertex 1 -0.140001 -7.62939e-07
      vertex 1 0.14 -0.185715
      vertex 1 0.139987 -7.62939e-07
    endloop
  endfacet
  facet normal 1 0 0
    outer loop
      vertex 1 0.14 -0.185715
      vertex 1 -0.140001 -7.62939e-07
      vertex 1 -0.140001 -0.185715
    endloop
  endfacet
  facet normal 0 0 1
    outer loop
      vertex 1 0.789996 0.185714
      vertex -0.300003 0.139987 0.185714
      vertex 1 0.139987 0.185714
    endloop
  endfacet
  facet normal -0.447218 0.894425 0
    outer loop
      vertex 1 0.789996 -7.62939e-07
      vertex -0.300003 0.139987 0.185714
      vertex 1 0.789996 0.185714
    endloop
  endfacet
  facet normal -0.447218 0.894425 -7.54763e-10
    outer loop
      vertex -0.299976 0.14 -7.62939e-07
      vertex -0.300003 0.139987 0.185714
      vertex 1 0.789996 -7.62939e-07
    endloop
  endfacet
  facet normal -0.447214 0.894427 0
    outer loop
      vertex -0.3 0.139988 -7.62939e-07
      vertex -0.300003 0.139987 0.185714
      vertex -0.299976 0.14 -7.62939e-07
    endloop
  endfacet
  facet normal -0.447214 0.894427 0
    outer loop
      vertex -0.300003 0.139987 0.185714
      vertex -0.3 0.139988 -7.62939e-07
      vertex -0.300003 0.139987 -7.62939e-07
    endloop
  endfacet
  facet normal -0 0 -1
    outer loop
      vertex 1 0.789996 0.185714
      vertex -0.300003 0.139987 0.185714
      vertex 1 1.43999 0.185714
    endloop
  endfacet
  facet normal 0.447218 -0.894425 0
    outer loop
      vertex -0.300003 0.139987 0.185714
      vertex 1 0.789996 0.371428
      vertex -0.300003 0.139987 0.371428
    endloop
  endfacet
  facet normal 0.447218 -0.894425 0
    outer loop
      vertex 1 0.789996 0.371428
      vertex -0.300003 0.139987 0.185714
      vertex 1 0.789996 0.185714
    endloop
  endfacet
  facet normal -0.707107 0.707107 0
    outer loop
      vertex -0.300003 0.139987 0.185714
      vertex 1 1.43999 0.371428
      vertex 1 1.43999 0.185714
    endloop
  endfacet
  facet normal -0.707107 0.707107 0
    outer loop
      vertex 1 1.43999 0.371428
      vertex -0.300003 0.139987 0.185714
      vertex -0.300003 0.139987 0.371428
    endloop
  endfacet
  facet normal 1 -0 0
    outer loop
      vertex 1 0.789996 0.371428
      vertex 1 1.43999 0.185714
      vertex 1 1.43999 0.371428
    endloop
  endfacet
  facet normal 1 0 0
    outer loop
      vertex 1 1.43999 0.185714
      vertex 1 0.789996 0.371428
      vertex 1 0.789996 0.185714
    endloop
  endfacet
  facet normal 0 0 1
    outer loop
      vertex 1 1.43999 0.371428
      vertex -0.300003 0.139987 0.371428
      vertex 1 0.789996 0.371428
    endloop
  endfacet
  facet normal -0 0 -1
    outer loop
      vertex 1 1.43999 0.371428
      vertex -0.300003 0.139987 0.371428
      vertex 0.349991 1.43999 0.371428
    endloop
  endfacet
  facet normal 0.707107 -0.707107 0
    outer loop
      vertex -0.300003 0.139987 0.557142
      vertex 1 1.43999 0.371428
      vertex 1 1.43999 0.557142
    endloop
  endfacet
  facet normal 0.707107 -0.707107 0
    outer loop
      vertex 1 1.43999 0.371428
      vertex -0.300003 0.139987 0.557142
      vertex -0.300003 0.139987 0.371428
    endloop
  endfacet
  facet normal -0.894429 0.447209 0
    outer loop
      vertex -0.300003 0.139987 0.371428
      vertex 0.349991 1.43999 0.557142
      vertex 0.349991 1.43999 0.371428
    endloop
  endfacet
  facet normal -0.894429 0.447209 0
    outer loop
      vertex 0.349991 1.43999 0.557142
      vertex -0.300003 0.139987 0.371428
      vertex -0.300003 0.139987 0.557142
    endloop
  endfacet
  facet normal 0 1 -0
    outer loop
      vertex 1 1.43999 0.371428
      vertex 0.349991 1.43999 0.557142
      vertex 1 1.43999 0.557142
    endloop
  endfacet
  facet normal 0 1 0
    outer loop
      vertex 0.349991 1.43999 0.557142
      vertex 1 1.43999 0.371428
      vertex 0.349991 1.43999 0.371428
    endloop
  endfacet
  facet normal -0 0 1
    outer loop
      vertex 0.349991 1.43999 0.557142
      vertex -0.300003 0.139987 0.557142
      vertex 1 1.43999 0.557142
    endloop
  endfacet
  facet normal -0 0 -1
    outer loop
      vertex 0.349991 1.43999 0.557142
      vertex -0.300003 0.139987 0.557142
      vertex -0.300003 1.43999 0.557142
    endloop
  endfacet
  facet normal 0.894429 -0.447209 0
    outer loop
      vertex -0.300003 0.139987 0.742856
      vertex 0.349991 1.43999 0.557142
      vertex 0.349991 1.43999 0.742856
    endloop
  endfacet
  facet normal 0.894429 -0.447209 0
    outer loop
      vertex 0.349991 1.43999 0.557142
      vertex -0.300003 0.139987 0.742856
      vertex -0.300003 0.139987 0.557142
    endloop
  endfacet
  facet normal -1 0 0
    outer loop
      vertex -0.300003 1.43999 0.557142
      vertex -0.300003 0.14 0.742856
      vertex -0.300003 1.43999 0.742856
    endloop
  endfacet
  facet normal -1 0 0
    outer loop
      vertex -0.300003 0.139987 0.557142
      vertex -0.300003 0.14 0.742856
      vertex -0.300003 1.43999 0.557142
    endloop
  endfacet
  facet normal -1 -0 0
    outer loop
      vertex -0.300003 0.14 0.742856
      vertex -0.300003 0.139987 0.557142
      vertex -0.300003 0.139987 0.742856
    endloop
  endfacet
  facet normal 0 1 -0
    outer loop
      vertex 0.349991 1.43999 0.557142
      vertex -0.3 1.43999 0.742856
      vertex 0.349991 1.43999 0.742856
    endloop
  endfacet
  facet normal 0 1 0
    outer loop
      vertex -0.300003 1.43999 0.557142
      vertex -0.3 1.43999 0.742856
      vertex 0.349991 1.43999 0.557142
    endloop
  endfacet
  facet normal 0 1 0
    outer loop
      vertex -0.3 1.43999 0.742856
      vertex -0.300003 1.43999 0.557142
      vertex -0.300003 1.43999 0.742856
    endloop
  endfacet
  facet normal 0 0 -1
    outer loop
      vertex -0.300003 0.14 0.742856
      vertex -0.650001 0.14 0.742856
      vertex -0.300003 1.43999 0.742856
    endloop
  endfacet
  facet normal 0 0 -1
    outer loop
      vertex -0.300003 1.43999 0.742856
      vertex -0.3 1.44 0.742856
      vertex -0.3 1.43999 0.742856
    endloop
  endfacet
  facet normal 0 0 -1
    outer loop
      vertex -0.300003 1.43999 0.742856
      vertex -0.650001 1.44 0.742856
      vertex -0.3 1.44 0.742856
    endloop
  endfacet
  facet normal 0 0 -1
    outer loop
      vertex -0.650001 1.44 0.742856
      vertex -0.300003 1.43999 0.742856
      vertex -0.650001 0.14 0.742856
    endloop
  endfacet
  facet normal 0 0 1
    outer loop
      vertex -0.3 0.14 0.742856
      vertex 0.349991 1.43999 0.742856
      vertex -0.3 1.43999 0.742856
    endloop
  endfacet
  facet normal -0 0 1
    outer loop
      vertex -0.3 0.14 0.742856
      vertex -0.300003 0.139987 0.742856
      vertex 0.349991 1.43999 0.742856
    endloop
  endfacet
  facet normal 0 0 1
    outer loop
      vertex -0.300003 0.139987 0.742856
      vertex -0.3 0.14 0.742856
      vertex -0.300003 0.14 0.742856
    endloop
  endfacet
  facet normal -1 0 0
    outer loop
      vertex -0.650001 0.14 0.742856
      vertex -0.650001 1.44 0.928571
      vertex -0.650001 1.44 0.742856
    endloop
  endfacet
  facet normal -1 -0 0
    outer loop
      vertex -0.650001 1.44 0.928571
      vertex -0.650001 0.14 0.742856
      vertex -0.650001 0.14 0.928571
    endloop
  endfacet
  facet normal -0 0 1
    outer loop
      vertex -0.650001 1.44 0.928571
      vertex -0.3 0.14 0.928571
      vertex -0.3 1.44 0.928571
    endloop
  endfacet
  facet normal 0 0 1
    outer loop
      vertex -0.3 0.14 0.928571
      vertex -0.650001 1.44 0.928571
      vertex -0.650001 0.14 0.928571
    endloop
  endfacet
  facet normal 1 0 0
    outer loop
      vertex -0.3 1.44 0.928571
      vertex -0.3 1.43999 0.742856
      vertex -0.3 1.44 0.742856
    endloop
  endfacet
  facet normal 1 -0 0
    outer loop
      vertex -0.3 0.14 0.928571
      vertex -0.3 1.43999 0.742856
      vertex -0.3 1.44 0.928571
    endloop
  endfacet
  facet normal 1 0 0
    outer loop
      vertex -0.3 1.43999 0.742856
      vertex -0.3 0.14 0.928571
      vertex -0.3 0.14 0.742856
    endloop
  endfacet
  facet normal 0 1 -0
    outer loop
      vertex -0.3 1.44 0.742856
      vertex -0.650001 1.44 0.928571
      vertex -0.3 1.44 0.928571
    endloop
  endfacet
  facet normal 0 1 0
    outer loop
      vertex -0.650001 1.44 0.928571
      vertex -0.3 1.44 0.742856
      vertex -0.650001 1.44 0.742856
    endloop
  endfacet
  facet normal 0 -1 0
    outer loop
      vertex -0.650001 0.14 0.742856
      vertex -0.3 0.14 0.928571
      vertex -0.650001 0.14 0.928571
    endloop
  endfacet
  facet normal 0 -1 0
    outer loop
      vertex -0.300003 0.14 0.742856
      vertex -0.3 0.14 0.928571
      vertex -0.650001 0.14 0.742856
    endloop
  endfacet
  facet normal 0 -1 -0
    outer loop
      vertex -0.3 0.14 0.928571
      vertex -0.300003 0.14 0.742856
      vertex -0.3 0.14 0.742856
    endloop
  endfacet
  facet normal -1 0 0
    outer loop
      vertex -1 0.14 0.928571
      vertex -1 1.44 1.11429
      vertex -1 1.44 0.928571
    endloop
  endfacet
  facet normal -1 -0 0
    outer loop
      vertex -1 1.44 1.11429
      vertex -1 0.14 0.928571
      vertex -1 0.14 1.11429
    endloop
  endfacet
  facet normal -0 0 1
    outer loop
      vertex -1 1.44 1.11429
      vertex -0.650001 0.14 1.11429
      vertex -0.650001 1.44 1.11429
    endloop
  endfacet
  facet normal 0 0 1
    outer loop
      vertex -0.650001 0.14 1.11429
      vertex -1 1.44 1.11429
      vertex -1 0.14 1.11429
    endloop
  endfacet
  facet normal 1 -0 0
    outer loop
      vertex -0.650001 0.14 1.11429
      vertex -0.650001 1.44 0.928571
      vertex -0.650001 1.44 1.11429
    endloop
  endfacet
  facet normal 1 0 0
    outer loop
      vertex -0.650001 1.44 0.928571
      vertex -0.650001 0.14 1.11429
      vertex -0.650001 0.14 0.928571
    endloop
  endfacet
  facet normal 0 0 -1
    outer loop
      vertex -1 0.14 0.928571
      vertex -0.650001 1.44 0.928571
      vertex -0.650001 0.14 0.928571
    endloop
  endfacet
  facet normal -0 0 -1
    outer loop
      vertex -0.650001 1.44 0.928571
      vertex -1 0.14 0.928571
      vertex -1 1.44 0.928571
    endloop
  endfacet
  facet normal 0 -1 0
    outer loop
      vertex -1 0.14 0.928571
      vertex -0.650001 0.14 1.11429
      vertex -1 0.14 1.11429
    endloop
  endfacet
  facet normal 0 -1 -0
    outer loop
      vertex -0.650001 0.14 1.11429
      vertex -1 0.14 0.928571
      vertex -0.650001 0.14 0.928571
    endloop
  endfacet
  facet normal 0 1 -0
    outer loop
      vertex -0.650001 1.44 0.928571
      vertex -1 1.44 1.11429
      vertex -0.650001 1.44 1.11429
    endloop
  endfacet
  facet normal 0 1 0
    outer loop
      vertex -1 1.44 1.11429
      vertex -0.650001 1.44 0.928571
      vertex -1 1.44 0.928571
    endloop
  endfacet
  facet normal -1 0 0
    outer loop
      vertex -0.3 0.14 -0.185715
      vertex -0.3 0.139988 -7.62939e-07
      vertex -0.3 0.14 -7.62939e-07
    endloop
  endfacet
  facet normal -1 0 0
    outer loop
      vertex -0.3 0.14 -0.185715
      vertex -0.3 0.139987 -7.62939e-07
      vertex -0.3 0.139988 -7.62939e-07
    endloop
  endfacet
  facet normal -1 0 0
    outer loop
      vertex -0.3 -0.140001 -0.185715
      vertex -0.3 0.139987 -7.62939e-07
      vertex -0.3 0.14 -0.185715
    endloop
  endfacet
  facet normal -1 -0 0
    outer loop
      vertex -0.3 0.139987 -7.62939e-07
      vertex -0.3 -0.140001 -0.185715
      vertex -0.3 -0.140001 -7.62939e-07
    endloop
  endfacet
  facet normal 0 0 -1
    outer loop
      vertex -0.3 -0.140001 -0.185715
      vertex 1 0.14 -0.185715
      vertex 1 -0.140001 -0.185715
    endloop
  endfacet
  facet normal -0 0 -1
    outer loop
      vertex 1 0.14 -0.185715
      vertex -0.3 -0.140001 -0.185715
      vertex -0.3 0.14 -0.185715
    endloop
  endfacet
  facet normal 0 -1 0
    outer loop
      vertex -0.3 -0.140001 -0.185715
      vertex 1 -0.140001 -7.62939e-07
      vertex -0.3 -0.140001 -7.62939e-07
    endloop
  endfacet
  facet normal 0 -1 -0
    outer loop
      vertex 1 -0.140001 -7.62939e-07
      vertex -0.3 -0.140001 -0.185715
      vertex 1 -0.140001 -0.185715
    endloop
  endfacet
  facet normal 0 1 -0
    outer loop
      vertex 1 0.14 -0.185715
      vertex -0.299976 0.14 -7.62939e-07
      vertex 1 0.14 -7.62939e-07
    endloop
  endfacet
  facet normal 0 1 0
    outer loop
      vertex -0.3 0.14 -0.185715
      vertex -0.299976 0.14 -7.62939e-07
      vertex 1 0.14 -0.185715
    endloop
  endfacet
  facet normal 0 1 0
    outer loop
      vertex -0.299976 0.14 -7.62939e-07
      vertex -0.3 0.14 -0.185715
      vertex -0.3 0.14 -7.62939e-07
    endloop
  endfacet
endsolid OpenSCAD_Model
